{
    "patcher": {
        "fileversion": 1,
        "appversion": {
            "major": 9,
            "minor": 1,
            "revision": 0,
            "architecture": "x64",
            "modernui": 1
        },
        "classnamespace": "box",
        "rect": [ 134.0, 174.0, 1161.0, 581.0 ],
        "boxes": [
            {
                "box": {
                    "id": "obj-7",
                    "linecount": 2,
                    "maxclass": "comment",
                    "numinlets": 1,
                    "numoutlets": 0,
                    "patching_rect": [ 36.0, 26.0, 398.0, 33.0 ],
                    "text": "In this example descriptor analysis is used to find the nearest match in a variety of pre-analyzed corpora."
                }
            },
            {
                "box": {
                    "id": "obj-14",
                    "maxclass": "newobj",
                    "numinlets": 1,
                    "numoutlets": 1,
                    "outlettype": [ "" ],
                    "patching_rect": [ 864.0, 218.0, 80.0, 22.0 ],
                    "text": "prepend read"
                }
            },
            {
                "box": {
                    "id": "obj-13",
                    "items": [ "corpus_banjo.json", ",", "corpus_china.json", ",", "corpus_voice.json", ",", "corpus_toypiano.json", ",", "corpus_plumbutter.json", ",", "corpus_speak.json" ],
                    "maxclass": "umenu",
                    "numinlets": 1,
                    "numoutlets": 3,
                    "outlettype": [ "int", "", "" ],
                    "parameter_enable": 0,
                    "patching_rect": [ 798.0, 178.0, 151.0, 22.0 ]
                }
            },
            {
                "box": {
                    "channels": 1,
                    "id": "obj-49",
                    "lastchannelcount": 0,
                    "maxclass": "live.gain~",
                    "numinlets": 1,
                    "numoutlets": 4,
                    "outlettype": [ "signal", "", "float", "list" ],
                    "parameter_enable": 1,
                    "patching_rect": [ 95.0, 218.0, 48.0, 136.0 ],
                    "saved_attribute_attributes": {
                        "valueof": {
                            "parameter_longname": "live.gain~",
                            "parameter_mmax": 6.0,
                            "parameter_mmin": -70.0,
                            "parameter_modmode": 0,
                            "parameter_shortname": "thru",
                            "parameter_type": 0,
                            "parameter_unitstyle": 4
                        }
                    },
                    "varname": "live.gain~"
                }
            },
            {
                "box": {
                    "id": "obj-76",
                    "maxclass": "ezdac~",
                    "numinlets": 2,
                    "numoutlets": 0,
                    "patching_rect": [ 95.0, 377.0, 45.0, 45.0 ]
                }
            },
            {
                "box": {
                    "id": "obj-11",
                    "maxclass": "message",
                    "numinlets": 2,
                    "numoutlets": 1,
                    "outlettype": [ "" ],
                    "patching_rect": [ 587.0, 173.0, 49.0, 22.0 ],
                    "text": "floor $1"
                }
            },
            {
                "box": {
                    "id": "obj-6",
                    "maxclass": "message",
                    "numinlets": 2,
                    "numoutlets": 1,
                    "outlettype": [ "" ],
                    "patching_rect": [ 532.0, 173.0, 63.0, 22.0 ],
                    "text": "lockout $1"
                }
            },
            {
                "box": {
                    "id": "obj-17",
                    "maxclass": "message",
                    "numinlets": 2,
                    "numoutlets": 1,
                    "outlettype": [ "" ],
                    "patching_rect": [ 477.0, 173.0, 77.0, 22.0 ],
                    "text": "sensitivity $1"
                }
            },
            {
                "box": {
                    "id": "obj-40",
                    "maxclass": "comment",
                    "numinlets": 1,
                    "numoutlets": 0,
                    "patching_rect": [ 488.0, 74.0, 135.0, 20.0 ],
                    "saved_attribute_attributes": {
                        "textcolor": {
                            "expression": "themecolor.theme_textcolor"
                        }
                    },
                    "text": "onset detection settings"
                }
            },
            {
                "box": {
                    "fontsize": 10.55553416410818,
                    "id": "obj-8",
                    "maxclass": "live.dial",
                    "numinlets": 1,
                    "numoutlets": 2,
                    "outlettype": [ "", "float" ],
                    "parameter_enable": 1,
                    "patching_rect": [ 587.0, 105.0, 47.0, 51.0 ],
                    "saved_attribute_attributes": {
                        "valueof": {
                            "parameter_initial": [ -70 ],
                            "parameter_initial_enable": 1,
                            "parameter_longname": "live.dial[3]",
                            "parameter_mmax": 0.0,
                            "parameter_mmin": -99.0,
                            "parameter_modmode": 0,
                            "parameter_shortname": "threshold",
                            "parameter_type": 0,
                            "parameter_units": "dB",
                            "parameter_unitstyle": 9
                        }
                    },
                    "varname": "live.dial[2]"
                }
            },
            {
                "box": {
                    "fontsize": 10.55553416410818,
                    "id": "obj-59",
                    "maxclass": "live.dial",
                    "numinlets": 1,
                    "numoutlets": 2,
                    "outlettype": [ "", "float" ],
                    "parameter_enable": 1,
                    "patching_rect": [ 532.0, 105.0, 47.0, 51.0 ],
                    "saved_attribute_attributes": {
                        "valueof": {
                            "parameter_exponent": 3.0,
                            "parameter_initial": [ 30.00000000000001 ],
                            "parameter_initial_enable": 1,
                            "parameter_longname": "live.dial[1]",
                            "parameter_mmax": 1000.0,
                            "parameter_modmode": 0,
                            "parameter_shortname": "lockout",
                            "parameter_type": 0,
                            "parameter_unitstyle": 2
                        }
                    },
                    "varname": "live.dial[1]"
                }
            },
            {
                "box": {
                    "fontsize": 10.55553416410818,
                    "id": "obj-58",
                    "maxclass": "live.dial",
                    "numinlets": 1,
                    "numoutlets": 2,
                    "outlettype": [ "", "float" ],
                    "parameter_enable": 1,
                    "patching_rect": [ 477.0, 105.0, 47.0, 51.0 ],
                    "saved_attribute_attributes": {
                        "valueof": {
                            "parameter_initial": [ 50 ],
                            "parameter_initial_enable": 1,
                            "parameter_longname": "live.dial",
                            "parameter_mmax": 100.0,
                            "parameter_modmode": 0,
                            "parameter_shortname": "sensitivity",
                            "parameter_type": 0,
                            "parameter_unitstyle": 5
                        }
                    },
                    "varname": "live.dial"
                }
            },
            {
                "box": {
                    "angle": 270.0,
                    "bgcolor": [ 0.458595350062755, 0.458595237564901, 0.458595266962388, 1.0 ],
                    "border": 2,
                    "bordercolor": [ 0.09782765023003, 0.097827613875914, 0.09782762332443, 1.0 ],
                    "id": "obj-47",
                    "maxclass": "panel",
                    "mode": 0,
                    "numinlets": 1,
                    "numoutlets": 0,
                    "patching_rect": [ 471.0, 96.0, 169.0, 66.0 ],
                    "proportion": 0.5,
                    "saved_attribute_attributes": {
                        "bgfillcolor": {
                            "expression": "themecolor.theme_accentcolor"
                        },
                        "bordercolor": {
                            "expression": "themecolor.live_contrast_frame"
                        }
                    }
                }
            },
            {
                "box": {
                    "bgmode": 0,
                    "border": 0,
                    "clickthrough": 0,
                    "enablehscroll": 0,
                    "enablevscroll": 0,
                    "id": "obj-16",
                    "lockeddragscroll": 0,
                    "lockedsize": 0,
                    "maxclass": "bpatcher",
                    "name": "dk.descriptordisplay.maxpat",
                    "numinlets": 1,
                    "numoutlets": 1,
                    "offset": [ 0.0, 0.0 ],
                    "outlettype": [ "" ],
                    "patching_rect": [ 868.0, 307.0, 235.0, 235.0 ],
                    "viewvisibility": 1
                }
            },
            {
                "box": {
                    "bgmode": 0,
                    "border": 0,
                    "clickthrough": 0,
                    "enablehscroll": 0,
                    "enablevscroll": 0,
                    "id": "obj-1",
                    "lockeddragscroll": 0,
                    "lockedsize": 0,
                    "maxclass": "bpatcher",
                    "name": "dk.corpuslist.maxpat",
                    "numinlets": 1,
                    "numoutlets": 1,
                    "offset": [ 0.0, 0.0 ],
                    "outlettype": [ "" ],
                    "patching_rect": [ 623.0, 307.0, 235.0, 235.0 ],
                    "viewvisibility": 1
                }
            },
            {
                "box": {
                    "bubble": 1,
                    "bubbleside": 3,
                    "fontname": "Arial",
                    "fontsize": 13.0,
                    "id": "obj-2",
                    "linecount": 2,
                    "maxclass": "comment",
                    "numinlets": 1,
                    "numoutlets": 0,
                    "patching_rect": [ 24.0, 130.0, 57.0, 40.0 ],
                    "saved_attribute_attributes": {
                        "textcolor": {
                            "expression": "themecolor.theme_textcolor"
                        }
                    },
                    "text": "play audio"
                }
            },
            {
                "box": {
                    "id": "obj-95",
                    "maxclass": "newobj",
                    "numinlets": 2,
                    "numoutlets": 4,
                    "outlettype": [ "", "", "signal", "signal" ],
                    "patching_rect": [ 176.0, 218.0, 150.99999999999994, 22.0 ],
                    "text": "dk.descriptors~"
                }
            },
            {
                "box": {
                    "bgmode": 0,
                    "border": 0,
                    "clickthrough": 0,
                    "enablehscroll": 0,
                    "enablevscroll": 0,
                    "id": "obj-97",
                    "lockeddragscroll": 0,
                    "lockedsize": 0,
                    "maxclass": "bpatcher",
                    "name": "dk.demosound.maxpat",
                    "numinlets": 1,
                    "numoutlets": 5,
                    "offset": [ 0.0, 0.0 ],
                    "outlettype": [ "signal", "signal", "signal", "", "dictionary" ],
                    "patching_rect": [ 95.0, 105.0, 343.0, 90.0 ],
                    "varname": "dk.demosound[1]",
                    "viewvisibility": 1
                }
            },
            {
                "box": {
                    "id": "obj-98",
                    "maxclass": "newobj",
                    "numinlets": 1,
                    "numoutlets": 2,
                    "outlettype": [ "signal", "signal" ],
                    "patching_rect": [ 220.0, 307.0, 100.0, 22.0 ],
                    "text": "dk.corpusplayer~"
                }
            },
            {
                "box": {
                    "id": "obj-99",
                    "maxclass": "ezdac~",
                    "numinlets": 2,
                    "numoutlets": 0,
                    "patching_rect": [ 220.0, 352.0, 45.0, 45.0 ]
                }
            },
            {
                "box": {
                    "bgmode": 0,
                    "border": 0,
                    "clickthrough": 0,
                    "enablehscroll": 0,
                    "enablevscroll": 0,
                    "id": "obj-102",
                    "lockeddragscroll": 0,
                    "lockedsize": 0,
                    "maxclass": "bpatcher",
                    "name": "dk.plotter.maxpat",
                    "numinlets": 1,
                    "numoutlets": 2,
                    "offset": [ 0.0, 0.0 ],
                    "outlettype": [ "", "" ],
                    "patching_rect": [ 377.0, 307.0, 235.0, 235.0 ],
                    "viewvisibility": 1
                }
            },
            {
                "box": {
                    "id": "obj-104",
                    "maxclass": "newobj",
                    "numinlets": 1,
                    "numoutlets": 3,
                    "outlettype": [ "", "", "clear" ],
                    "patching_rect": [ 220.0, 263.0, 176.0, 22.0 ],
                    "text": "dk.corpusmatch"
                }
            },
            {
                "box": {
                    "bubble": 1,
                    "fontname": "Arial",
                    "fontsize": 13.0,
                    "id": "obj-9",
                    "linecount": 2,
                    "maxclass": "comment",
                    "numinlets": 1,
                    "numoutlets": 0,
                    "patching_rect": [ 955.0, 169.0, 109.0, 40.0 ],
                    "saved_attribute_attributes": {
                        "textcolor": {
                            "expression": "themecolor.theme_textcolor"
                        }
                    },
                    "text": "load analyzed corpus"
                }
            },
            {
                "box": {
                    "background": 1,
                    "bgcolor": [ 0.9, 0.65, 0.05, 1.0 ],
                    "fontface": 1,
                    "hint": "",
                    "id": "obj-3",
                    "ignoreclick": 1,
                    "legacytextcolor": 1,
                    "maxclass": "textbutton",
                    "numinlets": 1,
                    "numoutlets": 3,
                    "outlettype": [ "", "", "int" ],
                    "parameter_enable": 0,
                    "patching_rect": [ 43.0, 105.0, 20.0, 20.0 ],
                    "rounded": 60.0,
                    "saved_attribute_attributes": {
                        "bgcolor": {
                            "expression": "themecolor.lesson_step_circle"
                        }
                    },
                    "text": "2",
                    "textcolor": [ 0.34902, 0.34902, 0.34902, 1.0 ]
                }
            },
            {
                "box": {
                    "background": 1,
                    "bgcolor": [ 0.9, 0.65, 0.05, 1.0 ],
                    "fontface": 1,
                    "hint": "",
                    "id": "obj-5",
                    "ignoreclick": 1,
                    "legacytextcolor": 1,
                    "maxclass": "textbutton",
                    "numinlets": 1,
                    "numoutlets": 3,
                    "outlettype": [ "", "", "int" ],
                    "parameter_enable": 0,
                    "patching_rect": [ 1068.0, 179.0, 20.0, 20.0 ],
                    "rounded": 60.0,
                    "saved_attribute_attributes": {
                        "bgcolor": {
                            "expression": "themecolor.lesson_step_circle"
                        }
                    },
                    "text": "1",
                    "textcolor": [ 0.34902, 0.34902, 0.34902, 1.0 ]
                }
            }
        ],
        "lines": [
            {
                "patchline": {
                    "destination": [ "obj-102", 0 ],
                    "midpoints": [ 632.5, 557.772807790728, 617.5, 557.772807790728, 617.5, 295.772807790728, 386.5, 295.772807790728 ],
                    "order": 1,
                    "source": [ "obj-1", 0 ]
                }
            },
            {
                "patchline": {
                    "destination": [ "obj-98", 0 ],
                    "midpoints": [ 632.5, 557.0185243943607, 206.0, 557.0185243943607, 206.0, 301.772807790728, 229.5, 301.772807790728 ],
                    "order": 0,
                    "source": [ "obj-1", 0 ]
                }
            },
            {
                "patchline": {
                    "destination": [ "obj-1", 0 ],
                    "midpoints": [ 386.5, 557.772807790728, 617.5, 557.772807790728, 617.5, 295.772807790728, 632.5, 295.772807790728 ],
                    "order": 1,
                    "source": [ "obj-102", 0 ]
                }
            },
            {
                "patchline": {
                    "destination": [ "obj-98", 0 ],
                    "midpoints": [ 386.5, 557.0185243943607, 205.5, 557.0185243943607, 205.5, 300.01852439436067, 229.5, 300.01852439436067 ],
                    "order": 0,
                    "source": [ "obj-102", 0 ]
                }
            },
            {
                "patchline": {
                    "destination": [ "obj-1", 0 ],
                    "midpoints": [ 308.0, 294.9676022093063, 632.5, 294.9676022093063 ],
                    "order": 1,
                    "source": [ "obj-104", 1 ]
                }
            },
            {
                "patchline": {
                    "destination": [ "obj-102", 0 ],
                    "order": 0,
                    "source": [ "obj-104", 1 ]
                }
            },
            {
                "patchline": {
                    "destination": [ "obj-98", 0 ],
                    "source": [ "obj-104", 0 ]
                }
            },
            {
                "patchline": {
                    "destination": [ "obj-95", 0 ],
                    "midpoints": [ 596.5, 205.74677988361952, 185.5, 205.74677988361952 ],
                    "source": [ "obj-11", 0 ]
                }
            },
            {
                "patchline": {
                    "destination": [ "obj-14", 0 ],
                    "source": [ "obj-13", 1 ]
                }
            },
            {
                "patchline": {
                    "destination": [ "obj-104", 0 ],
                    "midpoints": [ 873.5, 250.35719104646296, 229.5, 250.35719104646296 ],
                    "source": [ "obj-14", 0 ]
                }
            },
            {
                "patchline": {
                    "destination": [ "obj-95", 0 ],
                    "midpoints": [ 486.5, 205.74677988361952, 185.5, 205.74677988361952 ],
                    "source": [ "obj-17", 0 ]
                }
            },
            {
                "patchline": {
                    "destination": [ "obj-76", 1 ],
                    "order": 0,
                    "source": [ "obj-49", 0 ]
                }
            },
            {
                "patchline": {
                    "destination": [ "obj-76", 0 ],
                    "order": 1,
                    "source": [ "obj-49", 0 ]
                }
            },
            {
                "patchline": {
                    "destination": [ "obj-17", 0 ],
                    "source": [ "obj-58", 0 ]
                }
            },
            {
                "patchline": {
                    "destination": [ "obj-6", 0 ],
                    "source": [ "obj-59", 0 ]
                }
            },
            {
                "patchline": {
                    "destination": [ "obj-95", 0 ],
                    "midpoints": [ 541.5, 205.74677988361952, 185.5, 205.74677988361952 ],
                    "source": [ "obj-6", 0 ]
                }
            },
            {
                "patchline": {
                    "destination": [ "obj-11", 0 ],
                    "source": [ "obj-8", 0 ]
                }
            },
            {
                "patchline": {
                    "destination": [ "obj-104", 0 ],
                    "order": 0,
                    "source": [ "obj-95", 1 ]
                }
            },
            {
                "patchline": {
                    "destination": [ "obj-16", 0 ],
                    "midpoints": [ 229.49999999999997, 257.6623966278846, 877.5, 257.6623966278846 ],
                    "order": 1,
                    "source": [ "obj-95", 1 ]
                }
            },
            {
                "patchline": {
                    "destination": [ "obj-49", 0 ],
                    "order": 1,
                    "source": [ "obj-97", 0 ]
                }
            },
            {
                "patchline": {
                    "destination": [ "obj-95", 0 ],
                    "midpoints": [ 104.5, 206.5, 185.5, 206.5 ],
                    "order": 0,
                    "source": [ "obj-97", 0 ]
                }
            },
            {
                "patchline": {
                    "destination": [ "obj-99", 1 ],
                    "source": [ "obj-98", 1 ]
                }
            },
            {
                "patchline": {
                    "destination": [ "obj-99", 0 ],
                    "source": [ "obj-98", 0 ]
                }
            }
        ],
        "parameters": {
            "obj-16::obj-61": [ "live.numbox[4]", "live.numbox", 0 ],
            "obj-16::obj-64": [ "live.numbox[5]", "live.numbox", 0 ],
            "obj-16::obj-67": [ "live.numbox[6]", "live.numbox", 0 ],
            "obj-16::obj-68": [ "live.numbox[7]", "live.numbox", 0 ],
            "obj-49": [ "live.gain~", "thru", 0 ],
            "obj-58": [ "live.dial", "sensitivity", 0 ],
            "obj-59": [ "live.dial[1]", "lockout", 0 ],
            "obj-8": [ "live.dial[3]", "threshold", 0 ],
            "obj-97::obj-43": [ "live.gain~[1]", "live.gain~[1]", 0 ],
            "inherited_shortname": 1
        },
        "autosave": 0,
        "toolbaradditions": [ "Data Knot", "data_knot", "dataknot" ]
    }
}